<svg width="280" height="280" viewBox="0 0 250 270" fill="none" xmlns="http://www.w3.org/2000/svg"><path d="M35.186 259.477c-9.413 0-18.378-3.575-24.877-10.278C3.586 242.497 0 233.783 0 224.399s3.586-18.098 10.31-24.801a31.7 31.7 0 0 1 4.93-4.021c.672-.447 1.344-.894 1.792-1.118 1.345-.67 2.69-1.34 3.81-2.01.673-.224 1.345-.671 2.018-.894 1.344-.447 2.689-.894 4.258-1.341.224 0 .672-.223.896-.223s.448 0 .448-.224l7.844-.446c.897 0 2.017.223 3.138.223h4.034c13.447 0 26.893-5.809 36.53-15.64 9.637-10.054 15.016-23.46 14.792-36.866v-.893c0-.447 0-.671-.224-1.117 0-.447 0-.894-.225-1.341v-.894c0-.67-.224-1.34-.224-2.011l.673-7.82c0-.223 0-.446.224-.67l.224-.447c.448-1.564.672-2.904 1.344-4.468.225-.894.673-1.341.897-2.011.672-1.341 1.345-2.681 2.017-3.798.224-.447.672-1.118 1.121-1.564a31.6 31.6 0 0 1 4.034-4.916c6.723-6.703 15.463-10.278 24.876-10.278s18.377 3.575 24.877 10.278c13.67 13.629 13.67 35.972 0 49.601a31.7 31.7 0 0 1-4.931 4.022c-.672.447-1.121.67-1.793 1.117-1.345.67-2.465 1.341-3.81 2.011-.672.223-1.344.67-2.017.894-1.344.446-2.689.893-4.258 1.34l-.896.224c-.225 0-.449.223-.673.223l-7.844.67c-.896 0-1.793-.223-2.913-.223h-4.258c-13.447 0-26.894 5.809-36.53 15.64-9.637 10.054-15.016 23.46-14.792 36.866v.893c0 .447 0 .671.224 1.117 0 .447 0 .894.224 1.341 0 .223 0 .67.224 1.117 0 .447.224 1.117.224 1.564v.224l-.672 7.596c0 .224-.224 1.117-.448 1.341-.448 1.564-.897 3.128-1.345 4.245-.224.67-.448 1.34-.896 2.011l-2.017 4.021c-.224.447-.673 1.118-1.12 1.788-1.345 1.787-2.69 3.575-4.035 4.915-6.5 6.256-15.464 9.831-24.876 9.831" fill="url(#a)"/><path d="M130.444 259.701c-9.413 0-18.377-3.58-24.876-10.292-6.724-6.712-10.31-15.437-10.31-24.834s3.586-18.122 10.31-24.834a31.6 31.6 0 0 1 4.93-4.027c.448-.448 1.121-.672 1.569-1.119 1.345-.671 2.465-1.343 3.81-2.014.672-.223 1.345-.671 2.017-.895 1.345-.447 2.689-.895 4.258-1.342l1.345-.447 8.068-.672c.896 0 2.017.224 2.913.224h4.482c13.447 0 26.894-5.817 36.531-15.661 9.637-10.068 15.015-23.492 14.791-36.916v-1.566l-.224-.224v-1.342l-.224-1.119c0-.671-.224-1.342-.224-1.79l.448-7.607c0-.223.224-1.118.448-1.342.449-1.79.897-3.132 1.345-4.251.224-.671.448-1.342.896-2.013.673-1.119 1.121-2.462 2.017-3.804l.225-.224c.224-.447.448-.895.896-1.342a31.7 31.7 0 0 1 4.034-4.922c6.723-6.712 15.464-10.292 24.877-10.292s18.153 3.58 24.876 10.292c13.671 13.647 13.671 36.021 0 49.668a31.7 31.7 0 0 1-4.93 4.027c-.449.224-.673.448-1.121.672l-.672.447c-1.121.671-2.466 1.343-3.81 2.014-.673.223-1.345.671-2.017.895-1.345.447-2.69.895-4.258 1.342-.449 0-.673.224-.897.224s-.448 0-.448.224l-7.844.447c-1.121 0-2.465-.224-3.586-.447h-4.034c-13.447 0-26.893 5.817-36.53 15.661-9.637 10.068-15.016 23.492-14.568 36.916v.894c0 .448 0 .895.225 1.119v1.119c0 .224 0 .671.224 1.118 0 .672.224 1.119.224 1.79l-.673 7.831c0 .224-.448 1.119-.448 1.119-.448 1.566-.896 3.132-1.344 4.474-.225.671-.449 1.343-.897 1.79v.224c-.672 1.342-1.345 2.461-2.017 3.803-.448.671-.672 1.119-1.12 1.79a31.7 31.7 0 0 1-4.034 4.922c-6.5 6.712-15.24 10.292-24.653 10.292" fill="url(#b)"/><path d="M35.186 164.667c-9.413 0-18.153-3.804-24.877-10.292C3.586 147.663 0 138.938 0 129.541s3.586-18.123 10.31-24.834a31.7 31.7 0 0 1 4.93-4.028c.448-.447 1.12-.671 1.792-1.118 1.121-.672 2.466-1.343 3.81-2.014.673-.224 1.345-.671 2.018-.895 1.344-.447 2.689-.895 4.258-1.118l.896-.224c.224 0 .224 0 .448-.224l8.068-.671c1.12 0 2.242.224 3.362.447h4.258c13.447 0 26.894-5.817 36.53-15.66 9.637-10.069 15.016-23.493 14.568-36.917v-.895c0-.447 0-.895-.224-1.342v-1.119l-.224-.895c0-.67-.224-1.342-.224-2.013l.448-7.383v-.448c0-.224.224-1.118.224-1.118.448-1.79.896-3.356 1.344-4.475.225-.671.673-1.343.897-2.014.672-1.342 1.345-2.46 2.017-3.803l.224-.224c.224-.224.672-.895.897-1.342a31.6 31.6 0 0 1 4.034-4.922C111.384 3.58 120.124 0 129.537 0s18.377 3.58 24.877 10.292c13.67 13.647 13.67 36.02 0 49.668a31.8 31.8 0 0 1-4.931 4.027c-.448.448-.896.672-1.569.895l-.224.224c-1.345.671-2.465 1.342-3.81 2.014-.672.223-1.344.67-2.017.894a98 98 0 0 1-4.258 1.343c-.224 0-.672.224-.896.224-.225 0-.449 0-.449.223l-7.844.448c-.896 0-2.017-.224-3.137-.224h-4.482c-13.447 0-26.894 5.817-36.53 15.661-9.638 10.068-15.016 23.492-14.792 36.916v.895c0 .447 0 .895.224 1.119v1.342c0 .224 0 .671.224 1.119 0 .671.224 1.118.224 1.79l-.672 7.606c0 .224 0 .448-.224.672l-.224.671c-.449 1.79-.897 3.132-1.345 4.474-.224.672-.672 1.343-.897 2.014-.672 1.342-1.344 2.461-2.016 3.804-.449.671-.673 1.118-1.121 1.789a31.7 31.7 0 0 1-4.034 4.922c-6.051 6.041-15.016 9.845-24.428 9.845" fill="url(#c)"/><defs><linearGradient id="a" x1="164.667" y1="94.467" x2="0" y2="259.133" gradientUnits="userSpaceOnUse"><stop stop-color="#44f126"/><stop offset=".5" stop-color="#44f126" stop-opacity="0"/><stop offset="1" stop-color="#44f126"/></linearGradient><linearGradient id="b" x1="260" y1="95.333" x2="95.333" y2="260" gradientUnits="userSpaceOnUse"><stop stop-color="#44f126"/><stop offset=".5" stop-color="#44f126" stop-opacity="0"/><stop offset="1" stop-color="#44f126"/></linearGradient><linearGradient id="c" x1="164.667" y1="0" x2="0" y2="164.667" gradientUnits="userSpaceOnUse"><stop stop-color="#44f126"/><stop offset=".5" stop-color="#44f126" stop-opacity="0"/><stop offset="1" stop-color="#44f126"/></linearGradient></defs></svg>
