<svg width="100" xmlns="http://www.w3.org/2000/svg" fill="#fff" viewBox="0 0 160 45" xmlns:bx="https://boxy-svg.com"><ellipse style="stroke:#fff;paint-order:stroke;stroke-width:0;fill-rule:nonzero" cx="3.003" cy="41.36" rx="2.984" ry="3.064"/><path d="M66.76 34.424q-2.224 0-4.038-.838-1.813-.854-2.88-2.453-1.067-1.616-1.067-3.902 0-2.011.793-3.26a5.6 5.6 0 0 1 2.118-1.982q1.327-.716 2.926-1.067a36 36 0 0 1 3.246-.579q2.133-.274 3.46-.411 1.34-.153 1.95-.503.625-.35.625-1.22v-.121q0-2.256-1.234-3.505-1.22-1.25-3.704-1.25-2.576 0-4.038 1.128t-2.057 2.408l-3.414-1.22q.914-2.133 2.438-3.322a9.1 9.1 0 0 1 3.353-1.676 14 14 0 0 1 3.597-.488q1.127 0 2.59.274a8.3 8.3 0 0 1 2.85 1.082q1.386.823 2.301 2.484t.914 4.45v15.423h-3.596v-3.17h-.183q-.365.762-1.22 1.63-.852.87-2.27 1.479-1.417.61-3.46.61m.55-3.23q2.132 0 3.596-.839 1.479-.838 2.225-2.164a5.5 5.5 0 0 0 .762-2.788V22.11q-.228.274-1.006.503-.762.213-1.768.38-.99.153-1.935.275a96 96 0 0 0-1.509.183q-1.401.183-2.62.594-1.206.396-1.952 1.204-.73.793-.731 2.164 0 1.875 1.387 2.835 1.402.945 3.55.945m35.047-20.726L93.7 33.875h-3.658l-8.656-23.408h3.901L91.75 29.12h.244l6.461-18.653zm4.747 23.408V10.468h3.596v23.408zm17.072.548q-2.226 0-4.039-.838-1.814-.854-2.88-2.453-1.067-1.616-1.067-3.902 0-2.011.793-3.26a5.6 5.6 0 0 1 2.118-1.982 11.1 11.1 0 0 1 2.926-1.067 36 36 0 0 1 3.246-.579q2.133-.274 3.459-.411 1.342-.153 1.951-.503.625-.35.625-1.22v-.121q0-2.256-1.235-3.505-1.219-1.25-3.703-1.25-2.576 0-4.038 1.128t-2.058 2.408l-3.413-1.22q.914-2.134 2.438-3.322a9.1 9.1 0 0 1 3.353-1.676 14 14 0 0 1 3.596-.488q1.128 0 2.591.274a8.3 8.3 0 0 1 2.85 1.082q1.386.823 2.301 2.484.914 1.662.914 4.45v15.423h-3.596v-3.17h-.183q-.366.762-1.219 1.63-.853.87-2.271 1.479t-3.459.61m.548-3.23q2.134 0 3.597-.839 1.478-.837 2.225-2.164a5.5 5.5 0 0 0 .762-2.788V22.11q-.23.274-1.006.503-.762.213-1.768.38-.99.153-1.935.275-.93.107-1.509.183-1.402.183-2.621.594-1.204.396-1.951 1.204-.73.793-.731 2.164 0 1.875 1.386 2.835 1.403.945 3.551.945m20.341-11.4v14.082h-3.596V10.468h3.474v3.657h.305a6.7 6.7 0 0 1 2.499-2.865q1.677-1.097 4.328-1.097 2.377 0 4.161.975 1.782.96 2.773 2.926.991 1.95.991 4.938v14.874h-3.597v-14.63q0-2.76-1.432-4.298-1.433-1.554-3.932-1.554-1.722 0-3.078.747-1.34.746-2.119 2.179-.777 1.432-.777 3.474"/><path d="M3.399 0h37.885a3.4 3.4 0 0 0 3.399 3.399v37.885a3.4 3.4 0 0 0-3.399 3.399H3.399A3.4 3.4 0 0 0 0 41.284V3.399A3.4 3.4 0 0 0 3.399 0" bx:shape="rect 0 0 44.683 44.683 2 3.399 3.399 2@6067949d"/><path fill="url(#a)" d="M3.437 0A3.437 3.437 0 0 0 0 3.437v24.188l3.97-5.67a4.52 4.52 0 0 1 2.746-1.829 4.535 4.535 0 0 1 4.942 1.764l8.529 12.18a1.718 1.718 0 0 0 2.815 0l9.501-13.569a4.533 4.533 0 0 1 7.426 5.2L26.638 44.683h14.608a3.437 3.437 0 0 0 3.437-3.437V3.437A3.437 3.437 0 0 0 41.246 0z"/><path fill="url(#b)" d="M16.551 44.683 9.245 34.25a1.72 1.72 0 0 0-2.816 0L.401 42.86a3.44 3.44 0 0 0 3.036 1.824z"/><defs><linearGradient id="a" x1="44.683" x2="-3.023" y1="48.754" y2="6.036" gradientUnits="userSpaceOnUse"><stop stop-color="#0172FC"/><stop offset="1" stop-color="#01FFD1"/></linearGradient><linearGradient id="b" x1="44.683" x2="-3.023" y1="48.754" y2="6.036" gradientUnits="userSpaceOnUse"><stop stop-color="#0172FC"/><stop offset="1" stop-color="#01FFD1"/></linearGradient></defs></svg>
