<svg data-name="&lt;Ebene&gt;" xmlns="http://www.w3.org/2000/svg" viewBox="0 0 576 144"><path style="fill:#ec6602" d="M551.905 82.821a11.18 11.18 0 1 0-3.278-7.909 11.15 11.15 0 0 0 3.278 7.909m-18.762 18.762a8.61 8.61 0 1 0-2.519-6.083 8.57 8.57 0 0 0 2.519 6.083m.022-41.153a8.609 8.609 0 1 0-2.519-6.083 8.57 8.57 0 0 0 2.519 6.083m-19.206 60.337a6.62 6.62 0 1 0-1.938-4.68 6.6 6.6 0 0 0 1.938 4.68m.023-41.153a6.617 6.617 0 1 0-1.939-4.68 6.6 6.6 0 0 0 1.939 4.68m.023-41.152a6.62 6.62 0 1 0-1.938-4.68 6.6 6.6 0 0 0 1.938 4.68m-19.531 60.66a5.09 5.09 0 1 0-1.491-3.6 5.07 5.07 0 0 0 1.491 3.6m.026-41.152a5.09 5.09 0 1 0-1.491-3.6 5.07 5.07 0 0 0 1.491 3.6m-19.76 19.757a3.915 3.915 0 1 0-1.148-2.77 3.9 3.9 0 0 0 1.148 2.77"/><path d="M145.576 54.6v-9.664a49.3 49.3 0 0 0 14.6 2.6q8.763 0 8.763-4.629A3.8 3.8 0 0 0 167.66 40q-1.314-1.248-6.694-3.455-9.651-3.971-12.589-6.771a12.48 12.48 0 0 1-3.792-9.332q0-7.246 5.529-11.049 5.465-3.768 14.24-3.768a79.4 79.4 0 0 1 13.994 1.781V16.7a34.3 34.3 0 0 0-12.648-2.717q-8.229 0-8.229 4.528a3.2 3.2 0 0 0 1.661 2.762q1.379.86 7.6 3.662 8.952 3.971 11.92 6.911a12.15 12.15 0 0 1 3.528 9.023A13.36 13.36 0 0 1 175.259 53q-5.595 3.386-14.515 3.383a66.5 66.5 0 0 1-15.168-1.78m44.313.785h13.662V6.475h-13.662zm26.19-48.911V55.39h35.602v-9.346h-22.435V34.437h19.038v-8.066h-19.038V15.327h21.872v-8.85zm87.16 0-12.618 31.251-12.305-31.251h-17.715V55.39h9.625V20.76l14.067 35.125h8.474l14.346-35.125v34.63h12.95V6.477zm29.352 0V55.39h35.607v-9.346h-22.44V34.437H364.8v-8.066h-19.042V15.327h21.872v-8.85zm77.228 0V39.22L393.024 6.477h-15.837V55.39h9.625V22.208l17.247 33.182h15.385V6.477zM429.143 54.6v-9.664a48.9 48.9 0 0 0 14.6 2.6q8.765 0 8.764-4.629A3.83 3.83 0 0 0 451.26 40q-1.306-1.248-6.723-3.455-9.622-3.942-12.589-6.771a12.45 12.45 0 0 1-3.8-9.365q0-7.219 5.53-11.016 5.457-3.768 14.244-3.768A68 68 0 0 1 460.707 7.2l1.208.207V16.7a34.4 34.4 0 0 0-12.686-2.718q-8.193 0-8.19 4.528a3.2 3.2 0 0 0 1.65 2.762q1.314.823 7.638 3.662 8.886 3.971 11.886 6.911a12.14 12.14 0 0 1 3.528 9.023A13.38 13.38 0 0 1 458.864 53q-5.631 3.386-14.548 3.383a66.5 66.5 0 0 1-15.173-1.78" style="fill:#099"/><path d="M343.319 105.474c0 5.814-7.844 7.166-13.32 7.334.25-5.818 3.287-11.468 9.018-11.468a3.945 3.945 0 0 1 4.3 4.134m10.284-.086c0-8.008-5.481-12.31-13.994-12.31-13.826 0-20.992 11.3-20.992 23.691 0 12.647 5.732 21.583 20.063 21.583a26.6 26.6 0 0 0 15.429-4.721l-3.374-7.839a18.8 18.8 0 0 1-10.534 3.624c-6.41 0-9.11-4.3-9.7-8.345 10.2-.423 23.1-2.955 23.1-15.683m30.608.086c0 5.814-7.844 7.166-13.32 7.334.25-5.818 3.287-11.468 9.018-11.468a3.945 3.945 0 0 1 4.3 4.134m10.285-.086c0-8.008-5.482-12.31-14-12.31-13.826 0-20.991 11.3-20.991 23.691 0 12.647 5.731 21.583 20.062 21.583A26.6 26.6 0 0 0 395 133.631l-3.374-7.839a18.8 18.8 0 0 1-10.534 3.624c-6.41 0-9.105-4.3-9.7-8.345 10.2-.423 23.1-2.955 23.1-15.683m-314.457.086c0 5.814-7.844 7.166-13.321 7.334.25-5.818 3.287-11.468 9.019-11.468a3.945 3.945 0 0 1 4.3 4.134m10.284-.086c0-8.008-5.481-12.31-13.994-12.31-13.826 0-20.992 11.3-20.992 23.691 0 12.647 5.732 21.583 20.063 21.583a26.6 26.6 0 0 0 15.428-4.721l-3.373-7.839a18.8 18.8 0 0 1-10.535 3.624c-6.41 0-9.109-4.3-9.7-8.345 10.2-.423 23.1-2.955 23.1-15.683m-56.06-24.364v22.339H17.055V81.024H5v56.064h12.055v-23.186h17.199v23.186h12.06V81.024zm89.027 42.406c0 3.118-2.526 6.323-6.91 6.323-6.242 0-7.676-5.987-7.676-12.815 0-8.263 2.363-15.174 9.278-15.174a14 14 0 0 1 5.308.924Zm12.479 13.657-.843-8.513V96.2a50.2 50.2 0 0 0-15.517-3.122c-14.918 0-22.339 9.7-22.339 24.533 0 11.382 4.129 20.655 16.353 20.655 4.557 0 8.768-1.684 11.3-5.563l.424.087.587 4.3Zm9.779-55.98v43.249c0 7.084.674 13.994 12.815 13.994a22.35 22.35 0 0 0 10.708-2.695l-2.532-7.844a14.5 14.5 0 0 1-5.139 1.353c-3.124 0-4.134-1.858-4.134-6.492V81.107Zm73.092 55.98v-27.57a7.16 7.16 0 0 1 7.169-7.417c4.47 0 5.394 3.369 5.394 7.753v27.233h11.718v-29c0-10.034-4.8-15.01-13.657-15.01a14.37 14.37 0 0 0-10.621 4.384V81.023h-11.721v56.064Zm34.646.001H265V94.344h-11.723zm-.538-56.101a5.88 5.88 0 0 0 1.724 4.346 6.53 6.53 0 0 0 4.638 1.683 6.67 6.67 0 0 0 4.643-1.683 6.05 6.05 0 0 0 0-8.6 6.6 6.6 0 0 0-4.643-1.775 6.46 6.46 0 0 0-4.607 1.775 5.9 5.9 0 0 0-1.755 4.255m34.347 56.099v-27.4a7.29 7.29 0 0 1 7.334-7.585c4.471 0 5.227 3.455 5.227 8.09v26.9h11.718v-29.177c0-10.116-5.058-14.837-13.4-14.837a14.95 14.95 0 0 0-12.731 6.322l-.847-5.058h-9.779l.76 7.926v34.817Zm128.229-26.557c.168-4.466 2.868-7.334 7.084-7.334a12.8 12.8 0 0 1 5.981 1.516l2.108-10.112a15.14 15.14 0 0 0-7-1.515c-3.961 0-8.09 2.358-10.116 7.334l-1.1-6.074h-9.524l.843 7.421v35.323h11.718ZM462.8 96.793l.033-.1a23.38 23.38 0 0 0-13.96-3.633c-8.663.452-15.472 5.616-15 14.538s6.977 11.04 13.383 12.56c3.676.905 6.751 1.593 6.925 4.875.168 3.2-2.041 4.586-5.154 4.75-3.812.2-8.629-1.5-11.738-3.094l-3.493 8.036c2.459 1.646 8.8 4 16.27 3.605 9.755-.51 16.141-5.65 15.645-15.169-.462-8.758-7.469-10.674-13.71-12.291-3.85-.976-6.685-1.929-6.858-5.211-.144-2.782 2.069-4 4.851-4.144 2.878-.149 5.977 1.112 9.269 3.417Zm-276.626 6.74h11.044v-9.192h-11.044v-13.32h-11.718v13.325h-6.5v9.192h6.5v20.818c0 7.084.674 13.994 12.815 13.994a22.35 22.35 0 0 0 10.708-2.695l-2.532-7.844a14.5 14.5 0 0 1-5.144 1.353c-3.118 0-4.129-1.858-4.129-6.492Z" style="fill:#ec6602"/></svg>
